<svg width="209" height="236" viewBox="0 0 209 236" fill="none" xmlns="http://www.w3.org/2000/svg">
<g clip-path="url(#clip0_403_340)">
<path fill-rule="evenodd" clip-rule="evenodd" d="M118.963 8.69216L104.025 27.6968L90.784 8.47684L98.3323 1.09937L104.851 8.03488L111.55 1.16736L118.963 8.69216Z" fill="#EE1A26"/>
<path fill-rule="evenodd" clip-rule="evenodd" d="M140.929 194.058H152.948V175.813L165.996 188.46C167.128 189.593 168.101 190.556 169.255 191.701C170.67 193.106 170.738 194.104 173.397 194.07C177.528 194.07 182.326 194.319 186.355 194.07C185.37 192.574 181.964 189.537 180.47 188.007C178.365 185.887 176.441 183.961 174.314 181.864L162.103 169.523L178.659 152.842C179.486 152.026 183.978 147.753 184.182 147.176C180.414 146.915 176.045 147.176 172.186 147.119C169.866 147.119 170.591 146.926 168.293 149.238C167.162 150.371 166.256 151.267 165.158 152.377L153.015 164.322V147.04H141.008L140.929 194.058Z" fill="#EE1A26"/>
<path fill-rule="evenodd" clip-rule="evenodd" d="M27.1605 181.808V191.656C28.6883 192.789 35.535 194.206 37.9681 194.568C42.3157 195.245 46.7392 195.276 51.0957 194.659C59.4928 193.152 63.7479 188.732 63.7593 179.609C63.7593 163.098 43.7171 167.291 39.0206 162.611C38.3849 161.902 38.0075 160.999 37.95 160.048C37.8924 159.097 38.1581 158.155 38.7037 157.375C41.8158 153.171 54.072 155.856 57.8066 157.307C58.6914 157.738 59.6213 158.068 60.5792 158.293V148.728C56.0336 147.417 51.3424 146.678 46.6142 146.53C40.8426 146.53 36.8591 146.53 32.8416 149.136C31.061 150.238 29.5818 151.765 28.5368 153.581C27.4918 155.397 26.9139 157.445 26.8549 159.54C26.7531 167.472 29.322 171.212 37.0401 173.751C42.8004 175.666 54.5247 175.847 51.9671 182.975C50.6656 186.602 43.7737 186.896 39.2695 185.967C37.0809 185.534 34.9254 184.947 32.8189 184.21C31.4496 183.723 28.0772 181.831 27.1039 181.808H27.1605Z" fill="#EE1A26"/>
<path fill-rule="evenodd" clip-rule="evenodd" d="M97.2346 156.208C98.1852 156.616 97.1554 154.916 97.6986 156.944C97.6986 156.944 97.7665 158.078 97.7665 158.146V193.594L108.936 193.662C108.936 192.982 108.71 157.488 109.027 156.729C109.344 155.97 108.868 156.582 109.445 156.185H125.006V147.051H81.6739V156.117L97.2346 156.208ZM109.412 156.208C108.834 156.604 109.287 156.072 108.993 156.752C108.699 157.432 108.902 193.016 108.902 193.684L97.7325 193.616V158.168C97.7325 158.078 97.6646 156.967 97.6646 156.967C97.1214 154.938 98.1512 156.638 97.2006 156.23V194.07L109.264 194.126L109.355 156.208H109.412Z" fill="#EE1A26"/>
<path d="M29.1975 235.535V212.179H40.2315C42.5752 212.13 44.8987 212.623 47.0216 213.618C48.879 214.511 50.4478 215.909 51.5484 217.653C52.6263 219.538 53.1934 221.673 53.1934 223.846C53.1934 226.019 52.6263 228.154 51.5484 230.039C50.4554 231.795 48.8851 233.202 47.0216 234.096C44.9006 235.098 42.5758 235.59 40.2315 235.535H29.1975ZM35.7953 230.266H39.892C41.1098 230.295 42.3168 230.03 43.4115 229.495C44.3729 228.98 45.1604 228.191 45.6749 227.229C46.2254 226.168 46.5128 224.99 46.5128 223.795C46.5128 222.6 46.2254 221.422 45.6749 220.361C45.1455 219.43 44.3598 218.671 43.4115 218.174C42.3168 217.639 41.1098 217.375 39.892 217.403H35.7953V230.266Z" fill="#EE1A26"/>
<path d="M75.5062 236C73.749 236.014 72.004 235.707 70.357 235.093C68.827 234.529 67.4261 233.662 66.2377 232.544C65.0579 231.423 64.1214 230.07 63.4867 228.571C62.8519 227.072 62.5325 225.457 62.5484 223.829C62.5298 222.175 62.8656 220.537 63.5329 219.024C64.167 217.571 65.0869 216.26 66.2377 215.171C67.4196 214.056 68.8125 213.189 70.3344 212.621C73.6726 211.412 77.3284 211.412 80.6667 212.621C82.1852 213.185 83.5774 214.044 84.7634 215.148C85.9163 216.234 86.8399 217.54 87.4794 218.99C88.1478 220.514 88.4835 222.164 88.464 223.829C88.4816 225.507 88.1501 227.17 87.4907 228.713C86.8594 230.171 85.9349 231.483 84.7747 232.566C83.5829 233.669 82.1874 234.527 80.6667 235.093C79.0162 235.709 77.2672 236.016 75.5062 236ZM75.5062 230.526C76.3543 230.531 77.1956 230.373 77.9846 230.062C78.7402 229.76 79.423 229.3 79.9877 228.713C80.5599 228.119 81.0098 227.419 81.3117 226.651C81.9608 224.876 81.9608 222.929 81.3117 221.154C81.0151 220.37 80.5649 219.654 79.9877 219.047C79.423 218.46 78.7402 218 77.9846 217.698C76.3863 217.078 74.6147 217.078 73.0165 217.698C72.2486 218.007 71.5544 218.474 70.9791 219.07C70.4039 219.665 69.9605 220.376 69.678 221.154C69.0442 222.932 69.0442 224.874 69.678 226.651C69.9672 227.419 70.4136 228.118 70.9885 228.704C71.5634 229.289 72.2542 229.748 73.0165 230.05C73.8084 230.367 74.6535 230.528 75.5062 230.526Z" fill="#EE1A26"/>
<path d="M99.0226 235.535V212.179H110.905C113.991 212.179 116.292 212.746 117.809 213.879C118.517 214.372 119.094 215.032 119.489 215.801C119.884 216.569 120.084 217.423 120.072 218.287C120.091 219.416 119.763 220.524 119.133 221.46C118.465 222.408 117.543 223.146 116.473 223.591C115.187 224.128 113.804 224.391 112.41 224.361L113.044 222.752C114.506 222.722 115.96 222.98 117.322 223.511C118.467 223.944 119.461 224.7 120.185 225.687C120.871 226.686 121.227 227.875 121.204 229.087C121.234 230.018 121.023 230.941 120.593 231.767C120.163 232.593 119.527 233.293 118.748 233.801C116.58 235.074 114.081 235.666 111.573 235.501L99.0226 235.535ZM105.507 230.764H111.041C111.948 230.827 112.853 230.622 113.644 230.175C113.915 229.963 114.133 229.692 114.284 229.383C114.434 229.074 114.512 228.734 114.512 228.39C114.512 228.046 114.434 227.707 114.284 227.397C114.133 227.088 113.915 226.817 113.644 226.605C112.849 226.167 111.946 225.967 111.041 226.027H105.043V221.494H110.045C110.916 221.551 111.785 221.354 112.546 220.928C112.805 220.726 113.014 220.469 113.158 220.174C113.302 219.879 113.377 219.556 113.377 219.228C113.377 218.9 113.302 218.576 113.158 218.282C113.014 217.987 112.805 217.729 112.546 217.528C111.783 217.106 110.915 216.913 110.045 216.973H105.519L105.507 230.764Z" fill="#EE1A26"/>
<path d="M131.694 235.535V212.179H142.321C144.215 212.135 146.096 212.49 147.844 213.222C149.311 213.832 150.561 214.871 151.431 216.202C152.28 217.58 152.712 219.174 152.676 220.792C152.723 222.415 152.29 224.015 151.431 225.393C150.551 226.699 149.302 227.713 147.844 228.305C146.093 229.023 144.212 229.37 142.321 229.325H135.327L138.292 226.526V235.592L131.694 235.535ZM138.292 227.297L135.327 224.225H141.925C143.03 224.306 144.127 223.984 145.014 223.319C145.674 222.651 146.045 221.749 146.045 220.809C146.045 219.869 145.674 218.967 145.014 218.298C144.132 217.623 143.032 217.297 141.925 217.381H135.327L138.292 214.355V227.297ZM146.078 235.535L140.329 227.025H147.357L153.185 235.535H146.078Z" fill="#EE1A26"/>
<path d="M175.129 236C173.371 236.014 171.626 235.707 169.979 235.093C168.475 234.536 167.099 233.68 165.932 232.578C164.766 231.476 163.833 230.15 163.189 228.679C162.523 227.15 162.187 225.497 162.205 223.829C162.186 222.175 162.522 220.537 163.189 219.024C163.837 217.557 164.771 216.234 165.937 215.134C167.104 214.035 168.478 213.18 169.979 212.621C173.314 211.412 176.966 211.412 180.3 212.621C181.819 213.185 183.211 214.044 184.397 215.148C185.55 216.234 186.474 217.54 187.113 218.99C187.782 220.514 188.117 222.164 188.098 223.829C188.114 225.506 187.786 227.168 187.136 228.713C186.505 230.171 185.58 231.482 184.42 232.566C183.224 233.669 181.825 234.527 180.3 235.093C178.647 235.711 176.894 236.018 175.129 236ZM175.129 230.526C175.977 230.531 176.818 230.373 177.607 230.062C178.364 229.762 179.047 229.302 179.61 228.713C180.187 228.103 180.64 227.388 180.945 226.605C181.579 224.828 181.579 222.886 180.945 221.109C180.64 220.327 180.187 219.611 179.61 219.001C179.047 218.413 178.364 217.953 177.607 217.653C176.818 217.341 175.977 217.183 175.129 217.188C174.28 217.181 173.439 217.339 172.65 217.653C171.891 217.955 171.205 218.414 170.636 219.001C170.048 219.602 169.593 220.32 169.3 221.109C168.682 222.889 168.682 224.825 169.3 226.605C169.593 227.394 170.048 228.112 170.636 228.713C171.205 229.3 171.891 229.76 172.65 230.062C173.439 230.375 174.28 230.533 175.129 230.526Z" fill="#EE1A26"/>
<path fill-rule="evenodd" clip-rule="evenodd" d="M150.594 99.6582L56.6296 99.7149L30.465 119.841H179.282L150.594 99.6582Z" fill="#EE1A26"/>
<path fill-rule="evenodd" clip-rule="evenodd" d="M104.873 66.4766L66.679 92.6434H141.11L104.873 66.4766Z" fill="#EE1A26"/>
<path fill-rule="evenodd" clip-rule="evenodd" d="M171.722 14.6416L131.049 73.4801L145.829 83.7134L186.491 24.8749L171.722 14.6416Z" fill="#EE1A26"/>
<path fill-rule="evenodd" clip-rule="evenodd" d="M194.775 61.0257L179.984 50.8264L153.57 89.0284L168.327 99.273L194.775 61.0257Z" fill="#EE1A26"/>
<path fill-rule="evenodd" clip-rule="evenodd" d="M150.605 0L124.938 37.1254L138.609 46.5767L164.276 9.46266L150.605 0Z" fill="#EE1A26"/>
<path fill-rule="evenodd" clip-rule="evenodd" d="M194.243 30.2239L183.582 45.6248L198.34 55.8694L209 40.4572L194.243 30.2239Z" fill="#EE1A26"/>
<path fill-rule="evenodd" clip-rule="evenodd" d="M121.351 42.2817L109.977 58.8159L123.626 68.2786L135.01 51.8124L121.351 42.2817Z" fill="#EE1A26"/>
<path fill-rule="evenodd" clip-rule="evenodd" d="M37.2778 14.7549L77.9506 73.6047L63.1708 83.8267L22.5093 24.9882L37.2778 14.7549Z" fill="#EE1A26"/>
<path fill-rule="evenodd" clip-rule="evenodd" d="M14.2253 61.1503L29.0165 50.9397L55.43 89.153L40.6728 99.3863L14.2253 61.1503Z" fill="#EE1A26"/>
<path fill-rule="evenodd" clip-rule="evenodd" d="M58.3837 0.113281L84.0617 37.2387L70.3796 46.7013L44.7243 9.57595L58.3837 0.113281Z" fill="#EE1A26"/>
<path fill-rule="evenodd" clip-rule="evenodd" d="M14.7572 30.3372L25.4177 45.7494L10.6492 55.9827L0 40.5704L14.7572 30.3372Z" fill="#EE1A26"/>
<path fill-rule="evenodd" clip-rule="evenodd" d="M87.6492 42.4062L99.0226 58.9291L85.3745 68.3917L73.9897 51.9256L87.6492 42.4062Z" fill="#EE1A26"/>
</g>
<defs>
<clipPath id="clip0_403_340">
<rect width="209" height="236" fill="white"/>
</clipPath>
</defs>
</svg>
